<?xml version="1.0" standalone="no"?>
<!DOCTYPE svg PUBLIC "-//W3C//DTD SVG 20010904//EN"
 "http://www.w3.org/TR/2001/REC-SVG-20010904/DTD/svg10.dtd">
<svg version="1.0" xmlns="http://www.w3.org/2000/svg"
 width="900.000000pt" height="254.000000pt" viewBox="0 0 900.000000 254.000000"
 preserveAspectRatio="xMidYMid meet">

<g transform="translate(0.000000,254.000000) scale(0.100000,-0.100000)"
fill="#000000" stroke="none">
<path d="M2250 2350 c-1323 -416 -1595 -502 -1598 -504 -1 -2 25 -51 59 -110
34 -59 60 -108 58 -110 -2 -2 -146 -85 -319 -186 l-315 -182 -50 10 c-27 6
-59 14 -69 18 -17 7 -19 4 -13 -36 5 -40 18 -55 149 -187 79 -80 213 -211 298
-293 l156 -148 77 70 76 69 288 -216 c157 -120 291 -219 297 -221 6 -2 51 46
100 106 48 61 95 110 103 110 15 0 140 -10 1108 -90 198 -16 527 -43 730 -60
204 -17 478 -39 610 -50 132 -11 461 -38 730 -60 270 -22 625 -51 790 -65 165
-14 467 -38 670 -55 204 -17 478 -39 610 -50 132 -11 461 -38 730 -60 270 -21
514 -42 543 -45 28 -3 52 -4 52 -2 0 2 -25 176 -55 387 -30 211 -54 384 -52
386 3 3 880 342 934 361 24 8 43 18 43 22 0 13 -612 662 -621 659 -4 -2 -106
-94 -224 -206 -119 -112 -219 -202 -221 -199 -4 4 -64 401 -61 403 1 1 64 45
140 98 75 54 137 100 137 102 0 2 -10 2 -22 0 -13 -3 -72 -8 -133 -11 -331
-17 -729 -39 -1175 -65 -184 -11 -418 -24 -520 -30 -102 -6 -302 -17 -445 -25
-1009 -58 -1728 -98 -3030 -170 -445 -24 -835 -47 -864 -50 -102 -11 -47 3
179 44 124 22 297 54 385 71 88 16 278 51 423 77 144 26 262 51 262 56 0 7
-366 596 -379 608 -3 4 -260 -73 -571 -171z m660 -146 c113 -164 135 -200 121
-206 -14 -7 -306 -75 -1356 -320 -443 -102 -467 -109 -452 -124 3 -3 126 1
274 10 147 9 543 32 878 51 336 19 723 42 860 50 138 8 369 21 515 30 146 8
495 29 775 45 281 16 670 39 865 50 195 11 544 32 775 45 231 13 620 36 865
50 245 14 508 30 585 35 77 5 140 8 141 7 1 -1 23 -150 48 -331 26 -182 48
-331 50 -333 1 -2 117 103 257 232 140 129 256 234 259 234 3 0 121 -127 263
-281 l258 -281 -481 -183 c-265 -100 -484 -185 -487 -188 -3 -3 18 -169 46
-369 28 -200 51 -365 51 -368 0 -5 -19 -4 -1265 101 -1791 150 -2258 189
-3340 280 -594 50 -1264 106 -1490 125 l-410 35 -112 -75 -112 -75 -228 182
c-125 99 -235 187 -243 194 -13 10 -28 2 -95 -52 -44 -35 -83 -63 -86 -61 -3
1 -111 104 -240 228 -129 124 -253 243 -276 264 -38 33 -60 67 -33 50 13 -8
444 -165 445 -162 8 11 61 228 56 231 -3 2 -69 -3 -146 -10 -77 -7 -155 -13
-173 -14 -25 0 47 40 290 161 178 89 325 163 327 165 2 2 -30 45 -72 96 l-76
93 27 9 c142 49 1989 592 1995 586 5 -4 70 -97 147 -206z m-2391 -966 c-5 -18
-9 -34 -9 -35 0 -2 -18 -12 -39 -23 -36 -18 -43 -18 -83 -5 -23 7 -83 26 -133
41 l-90 28 120 12 c66 6 148 12 182 13 l62 1 -10 -32z"/>
<path d="M7475 1833 c-27 -2 -268 -14 -535 -28 -267 -14 -791 -41 -1165 -60
-374 -19 -855 -44 -1070 -55 -214 -11 -428 -22 -475 -25 -47 -3 -305 -17 -575
-30 -269 -14 -708 -36 -975 -50 -267 -14 -660 -34 -875 -45 -424 -21 -568 -30
-574 -35 -2 -2 1 -29 6 -59 6 -31 8 -58 5 -61 -3 -3 -27 -5 -54 -5 -58 0 -51
12 -104 -191 -20 -79 -39 -146 -40 -148 -2 -2 -86 40 -189 93 -102 53 -189 96
-193 96 -4 0 -27 -52 -51 -115 -24 -64 -48 -118 -53 -121 -4 -3 -52 17 -105
45 -53 28 -97 50 -98 49 -1 -2 62 -62 140 -135 l142 -131 86 69 c48 38 91 69
96 69 8 0 211 -177 426 -371 20 -18 23 -17 121 41 l101 59 269 -24 c2759 -253
6208 -564 6211 -561 4 4 -104 657 -109 661 -2 1 -138 -50 -302 -113 l-300
-115 -69 13 c-56 10 -67 15 -56 25 8 6 159 146 337 309 296 273 323 300 318
324 -8 39 -106 616 -106 625 0 7 -80 7 -185 0z"/>
<path d="M853 1352 c-95 -9 -173 -19 -173 -22 0 -8 306 -230 317 -230 5 0 22
53 38 118 15 64 30 125 33 135 5 20 23 20 -215 -1z m104 -54 c-2 -7 -10 -30
-18 -51 -7 -20 -16 -36 -19 -35 -42 21 -130 75 -130 80 0 4 33 9 73 11 39 1
78 4 86 5 7 1 11 -4 8 -10z"/>
</g>
</svg>
